# xmcd
#
# Track frame offsets:
#	150
#	13545
#	28160
#	43967
#
# Disc length: 864 seconds
#
# Revision: 0
# Processed by: cddbd v1.5.1PL0 Copyright (c) Steve Scherf et al.
# Submitted via: dBpowerAMP V4.0
#
DISCID=2d035e04
DTITLE=McAlmont - Saturday!
DYEAR=1995
DGENRE=Blues
TTITLE0=Big Man
TTITLE1=Saturday!
TTITLE2=Fort James
TTITLE3=My Grey Boy
EXTD=
EXTT0=
EXTT1=
EXTT2=
EXTT3=
PLAYORDER=
